<svg fill="#0d141a" viewBox="0 0 140.94400000000002 17.732999999999997" height="100%" width="100%" xmlns="http://www.w3.org/2000/svg"><path preserveAspectRatio="none" d="M14.19 6.46L12.67 6.46Q12.67 5.22 12.33 4.40Q11.98 3.59 11.35 3.19Q10.72 2.78 9.84 2.81L9.84 2.81L8.74 2.81L8.74 13.59Q8.74 14.21 8.72 14.79Q8.69 15.36 8.65 15.66L8.65 15.66Q9.04 15.62 9.65 15.61Q10.26 15.59 10.49 15.59L10.49 15.59L10.49 17.36L3.77 17.36L3.77 15.85Q4.30 15.82 4.66 15.71Q5.01 15.59 5.21 15.18Q5.40 14.77 5.40 13.85L5.40 13.85L5.40 2.83L4.35 2.83Q3.04 2.85 2.28 3.73Q1.52 4.60 1.52 6.46L1.52 6.46L0 6.46L0.11 1.26L14.05 1.26L14.19 6.46ZM20.98 17.73L20.98 17.73Q19.30 17.73 18.01 16.99Q16.72 16.24 16.01 14.87Q15.29 13.50 15.29 11.64L15.29 11.64Q15.29 10.03 16.01 8.62Q16.72 7.22 18.02 6.36Q19.32 5.50 21.04 5.50L21.04 5.50Q22.01 5.50 22.93 5.76Q23.85 6.03 24.60 6.67Q25.35 7.31 25.79 8.42Q26.24 9.52 26.22 11.18L26.22 11.18L18.68 11.32Q18.68 12.56 18.99 13.55Q19.30 14.54 20.01 15.11Q20.72 15.69 21.92 15.69L21.92 15.69Q22.38 15.69 22.97 15.52Q23.55 15.36 24.16 14.98Q24.77 14.60 25.30 13.96L25.30 13.96L26.34 14.93Q25.51 16.10 24.56 16.71Q23.62 17.32 22.69 17.53Q21.76 17.73 20.98 17.73ZM18.81 9.71L18.81 9.71L23.05 9.71Q23.02 8.74 22.78 8.18Q22.54 7.61 22.13 7.36Q21.71 7.11 21.16 7.11L21.16 7.11Q20.15 7.11 19.57 7.83Q19.00 8.56 18.81 9.71ZM27.90 17.36L27.90 15.87Q28.54 15.87 28.82 15.62Q29.09 15.36 29.18 14.89Q29.26 14.42 29.26 13.82L29.26 13.82L29.26 9.96Q29.26 9.54 29.28 9.03Q29.30 8.51 29.35 8.00L29.35 8.00Q28.98 8.03 28.49 8.04Q27.99 8.05 27.74 8.07L27.74 8.07L27.74 6.32L28.66 6.32Q29.55 6.32 30.30 6.09Q31.05 5.86 31.28 5.63L31.28 5.63L32.41 5.63Q32.45 5.86 32.48 6.50Q32.50 7.13 32.50 7.61L32.50 7.61Q33.12 6.85 33.67 6.39Q34.22 5.93 34.76 5.72Q35.30 5.50 35.86 5.50L35.86 5.50Q36.66 5.50 37.26 5.95Q37.86 6.39 37.86 7.41L37.86 7.41Q37.86 7.75 37.70 8.13Q37.54 8.51 37.19 8.76Q36.85 9.02 36.25 9.02L36.25 9.02Q35.79 9.02 35.30 8.74Q34.82 8.46 34.75 7.68L34.75 7.68Q34.29 7.68 33.83 8.06Q33.37 8.44 33.02 8.96Q32.66 9.48 32.52 9.91L32.52 9.91L32.52 13.66Q32.52 13.98 32.50 14.57Q32.48 15.16 32.43 15.69L32.43 15.69Q32.80 15.64 33.25 15.63Q33.70 15.62 33.92 15.62L33.92 15.62L33.92 17.36L27.90 17.36ZM38.94 17.36L38.94 15.87Q39.58 15.87 39.86 15.62Q40.13 15.36 40.22 14.89Q40.30 14.42 40.30 13.82L40.30 13.82L40.30 9.96Q40.30 9.54 40.32 9.03Q40.34 8.51 40.39 8.00L40.39 8.00Q40.02 8.03 39.53 8.04Q39.03 8.05 38.78 8.07L38.78 8.07L38.78 6.32L39.70 6.32Q40.59 6.32 41.34 6.09Q42.09 5.86 42.32 5.63L42.32 5.63L43.45 5.63Q43.49 5.86 43.52 6.50Q43.54 7.13 43.54 7.61L43.54 7.61Q44.16 6.85 44.71 6.39Q45.26 5.93 45.80 5.72Q46.34 5.50 46.90 5.50L46.90 5.50Q47.70 5.50 48.30 5.95Q48.90 6.39 48.90 7.41L48.90 7.41Q48.90 7.75 48.74 8.13Q48.58 8.51 48.23 8.76Q47.89 9.02 47.29 9.02L47.29 9.02Q46.83 9.02 46.34 8.74Q45.86 8.46 45.79 7.68L45.79 7.68Q45.33 7.68 44.87 8.06Q44.41 8.44 44.06 8.96Q43.70 9.48 43.56 9.91L43.56 9.91L43.56 13.66Q43.56 13.98 43.54 14.57Q43.52 15.16 43.47 15.69L43.47 15.69Q43.84 15.64 44.29 15.63Q44.73 15.62 44.96 15.62L44.96 15.62L44.96 17.36L38.94 17.36ZM60.72 17.36L56.37 17.36Q56.33 17.04 56.32 16.82Q56.30 16.61 56.28 16.31L56.28 16.31Q55.50 17.09 54.62 17.41Q53.75 17.73 52.85 17.73L52.85 17.73Q51.38 17.73 50.55 16.86Q49.73 15.98 49.73 14.67L49.73 14.67Q49.73 13.57 50.29 12.79Q50.85 12.01 51.78 11.51Q52.72 11.02 53.85 10.75Q54.99 10.49 56.14 10.44L56.14 10.44L56.14 9.25Q56.14 8.65 55.99 8.16Q55.84 7.68 55.49 7.41Q55.13 7.13 54.49 7.15L54.49 7.15Q54.05 7.18 53.64 7.34Q53.22 7.50 52.92 7.80L52.92 7.80Q53.11 8.00 53.15 8.25Q53.20 8.49 53.20 8.67L53.20 8.67Q53.20 9.13 52.83 9.63Q52.46 10.12 51.66 10.10L51.66 10.10Q50.97 10.07 50.60 9.61Q50.23 9.15 50.23 8.53L50.23 8.53Q50.23 7.61 50.89 6.93Q51.54 6.26 52.65 5.88Q53.75 5.50 55.08 5.50L55.08 5.50Q57.11 5.50 58.22 6.54Q59.34 7.59 59.34 9.89L59.34 9.89Q59.34 10.67 59.34 11.22Q59.34 11.78 59.33 12.33Q59.32 12.88 59.32 13.66L59.32 13.66Q59.32 13.98 59.29 14.57Q59.27 15.16 59.22 15.69L59.22 15.69Q59.62 15.64 60.05 15.63Q60.49 15.62 60.72 15.62L60.72 15.62L60.72 17.36ZM56.12 12.07L56.12 12.07Q55.48 12.14 54.90 12.30Q54.33 12.47 53.90 12.74Q53.47 13.02 53.23 13.41Q52.99 13.80 52.99 14.28L52.99 14.28Q53.01 14.93 53.41 15.20Q53.80 15.48 54.30 15.48L54.30 15.48Q54.83 15.48 55.29 15.25Q55.75 15.02 56.12 14.65L56.12 14.65Q56.12 14.42 56.12 14.20Q56.12 13.98 56.12 13.75L56.12 13.75Q56.12 13.34 56.12 12.91Q56.12 12.49 56.12 12.07ZM72.52 17.73L72.52 17.73Q71.14 17.73 70.09 17.02Q69.05 16.31 68.46 15.00Q67.87 13.68 67.87 11.91L67.87 11.91Q67.87 10.05 68.59 8.60Q69.30 7.15 70.59 6.32Q71.88 5.50 73.58 5.50L73.58 5.50Q74.20 5.50 74.69 5.62Q75.19 5.75 75.62 5.91L75.62 5.91L75.62 4.39Q75.62 4.07 75.65 3.47Q75.67 2.87 75.72 2.37L75.72 2.37Q75.35 2.39 74.84 2.41Q74.34 2.44 74.08 2.44L74.08 2.44L74.08 0.69Q75.16 0.69 75.89 0.57Q76.61 0.46 77.04 0.30Q77.46 0.14 77.63 0L77.63 0L78.87 0L78.87 13.66Q78.87 13.98 78.84 14.57Q78.82 15.16 78.78 15.69L78.78 15.69Q79.17 15.64 79.60 15.63Q80.04 15.62 80.27 15.62L80.27 15.62L80.27 17.36L75.90 17.36Q75.88 17.11 75.84 16.84Q75.81 16.56 75.76 16.31L75.76 16.31Q75.00 17.09 74.20 17.41Q73.39 17.73 72.52 17.73ZM73.72 15.64L73.72 15.64Q74.31 15.64 74.82 15.33Q75.33 15.02 75.62 14.54L75.62 14.54Q75.62 14.19 75.62 13.85Q75.62 13.50 75.62 13.16L75.62 13.16L75.62 7.64Q75.39 7.45 74.93 7.33Q74.47 7.20 73.99 7.20L73.99 7.20Q72.93 7.22 72.33 7.87Q71.74 8.51 71.50 9.50Q71.25 10.49 71.25 11.57L71.25 11.57Q71.25 12.53 71.50 13.48Q71.74 14.42 72.28 15.03Q72.82 15.64 73.72 15.64ZM81.79 17.36L81.79 15.87Q82.43 15.87 82.71 15.62Q82.98 15.36 83.06 14.89Q83.14 14.42 83.14 13.82L83.14 13.82L83.14 10.00Q83.14 9.59 83.17 9.05Q83.19 8.51 83.24 8.00L83.24 8.00Q82.87 8.03 82.37 8.04Q81.88 8.05 81.63 8.07L81.63 8.07L81.63 6.32Q82.69 6.32 83.42 6.21Q84.16 6.09 84.58 5.93Q85.01 5.77 85.17 5.63L85.17 5.63L86.41 5.63L86.41 13.66Q86.41 13.98 86.39 14.57Q86.36 15.16 86.32 15.69L86.32 15.69Q86.69 15.64 87.14 15.63Q87.58 15.62 87.81 15.62L87.81 15.62L87.81 17.36L81.79 17.36ZM84.66 3.82L84.66 3.82Q83.88 3.82 83.38 3.27Q82.87 2.71 82.87 1.93L82.87 1.93Q82.87 1.15 83.40 0.60Q83.93 0.05 84.64 0.05L84.64 0.05Q85.38 0.05 85.87 0.60Q86.36 1.15 86.36 1.93L86.36 1.93Q86.36 2.71 85.91 3.27Q85.44 3.82 84.66 3.82ZM106.37 6.42L104.86 6.42Q104.65 5.13 104.12 4.27Q103.59 3.40 102.78 2.97Q101.96 2.53 100.88 2.55L100.88 2.55Q99.89 2.55 99.14 3.10Q98.39 3.66 98.39 4.53L98.39 4.53Q98.39 5.24 98.80 5.77Q99.20 6.30 100.03 6.76Q100.85 7.22 102.12 7.75L102.12 7.75Q102.99 8.10 103.91 8.56Q104.83 9.02 105.62 9.65Q106.40 10.28 106.88 11.12Q107.36 11.96 107.36 13.09L107.36 13.09Q107.36 14.44 106.63 15.50Q105.89 16.56 104.57 17.15Q103.25 17.73 101.48 17.73L101.48 17.73Q100.56 17.73 99.49 17.45Q98.42 17.16 97.47 16.61L97.47 16.61L97.54 17.57L95.77 17.57L95.77 12.19L97.29 12.19Q97.61 14.12 98.77 15.10Q99.93 16.08 101.54 16.08L101.54 16.08Q102.37 16.08 102.99 15.78Q103.61 15.48 103.96 14.98Q104.30 14.49 104.30 13.91L104.30 13.91Q104.30 13.11 103.74 12.58Q103.18 12.05 102.34 11.68Q101.50 11.32 100.62 10.97L100.62 10.97Q99.52 10.51 98.57 9.99Q97.61 9.48 96.90 8.81Q96.19 8.14 95.79 7.28Q95.40 6.42 95.40 5.29L95.40 5.29Q95.40 4.58 95.68 3.81Q95.96 3.04 96.58 2.38Q97.20 1.72 98.23 1.31Q99.27 0.90 100.79 0.90L100.79 0.90Q101.71 0.90 102.80 1.17Q103.89 1.45 104.67 2.00L104.67 2.00L104.58 1.06L106.37 1.06L106.37 6.42ZM119.85 17.36L115.51 17.36Q115.46 17.04 115.45 16.82Q115.44 16.61 115.41 16.31L115.41 16.31Q114.63 17.09 113.76 17.41Q112.88 17.73 111.99 17.73L111.99 17.73Q110.52 17.73 109.69 16.86Q108.86 15.98 108.86 14.67L108.86 14.67Q108.86 13.57 109.42 12.79Q109.99 12.01 110.92 11.51Q111.85 11.02 112.99 10.75Q114.13 10.49 115.28 10.44L115.28 10.44L115.28 9.25Q115.28 8.65 115.13 8.16Q114.98 7.68 114.62 7.41Q114.26 7.13 113.62 7.15L113.62 7.15Q113.18 7.18 112.77 7.34Q112.35 7.50 112.06 7.80L112.06 7.80Q112.24 8.00 112.29 8.25Q112.33 8.49 112.33 8.67L112.33 8.67Q112.33 9.13 111.96 9.63Q111.60 10.12 110.79 10.10L110.79 10.10Q110.10 10.07 109.73 9.61Q109.36 9.15 109.36 8.53L109.36 8.53Q109.36 7.61 110.02 6.93Q110.68 6.26 111.78 5.88Q112.88 5.50 114.22 5.50L114.22 5.50Q116.24 5.50 117.36 6.54Q118.47 7.59 118.47 9.89L118.47 9.89Q118.47 10.67 118.47 11.22Q118.47 11.78 118.46 12.33Q118.45 12.88 118.45 13.66L118.45 13.66Q118.45 13.98 118.43 14.57Q118.40 15.16 118.36 15.69L118.36 15.69Q118.75 15.64 119.19 15.63Q119.62 15.62 119.85 15.62L119.85 15.62L119.85 17.36ZM115.25 12.07L115.25 12.07Q114.61 12.14 114.03 12.30Q113.46 12.47 113.03 12.74Q112.61 13.02 112.37 13.41Q112.13 13.80 112.13 14.28L112.13 14.28Q112.15 14.93 112.54 15.20Q112.93 15.48 113.44 15.48L113.44 15.48Q113.97 15.48 114.42 15.25Q114.88 15.02 115.25 14.65L115.25 14.65Q115.25 14.42 115.25 14.20Q115.25 13.98 115.25 13.75L115.25 13.75Q115.25 13.34 115.25 12.91Q115.25 12.49 115.25 12.07ZM127.08 17.36L121.16 17.36L121.16 15.87Q121.81 15.87 122.08 15.62Q122.36 15.36 122.44 14.89Q122.52 14.42 122.52 13.82L122.52 13.82L122.52 9.96Q122.52 9.54 122.54 9.03Q122.57 8.51 122.61 8.00L122.61 8.00Q122.25 8.03 121.75 8.04Q121.26 8.05 121.00 8.07L121.00 8.07L121.00 6.32Q122.06 6.32 122.80 6.21Q123.53 6.09 123.96 5.93Q124.38 5.77 124.55 5.63L124.55 5.63L125.67 5.63Q125.72 5.86 125.73 6.21Q125.74 6.55 125.76 6.78L125.76 6.78Q126.55 6.19 127.45 5.84Q128.36 5.50 129.17 5.50L129.17 5.50Q130.23 5.50 130.92 5.88Q131.61 6.26 132.02 7.01L132.02 7.01Q132.85 6.32 133.85 5.91Q134.85 5.50 135.77 5.50L135.77 5.50Q137.63 5.50 138.59 6.57Q139.54 7.64 139.54 10.28L139.54 10.28L139.54 13.66Q139.54 13.98 139.52 14.57Q139.50 15.16 139.45 15.69L139.45 15.69Q139.82 15.64 140.27 15.63Q140.71 15.62 140.94 15.62L140.94 15.62L140.94 17.36L135.13 17.36L135.13 15.87Q135.65 15.87 135.90 15.62Q136.14 15.36 136.21 14.89Q136.28 14.42 136.28 13.82L136.28 13.82L136.28 10.30Q136.25 8.81 135.78 8.23Q135.31 7.66 134.53 7.64L134.53 7.64Q133.93 7.61 133.41 7.84Q132.89 8.07 132.48 8.39L132.48 8.39Q132.59 8.85 132.64 9.41Q132.69 9.96 132.69 10.58L132.69 10.58Q132.69 11.36 132.69 12.12Q132.69 12.88 132.69 13.66L132.69 13.66Q132.69 13.98 132.66 14.57Q132.64 15.16 132.59 15.69L132.59 15.69Q132.96 15.64 133.40 15.63Q133.84 15.62 134.09 15.62L134.09 15.62L134.09 17.36L128.16 17.36L128.16 15.87Q128.75 15.87 129.02 15.62Q129.28 15.36 129.35 14.89Q129.42 14.42 129.42 13.82L129.42 13.82L129.40 10.23Q129.40 8.74 128.96 8.19Q128.52 7.64 127.74 7.61L127.74 7.61Q127.17 7.61 126.67 7.87Q126.18 8.12 125.79 8.46L125.79 8.46Q125.79 8.76 125.79 9.04Q125.79 9.31 125.79 9.61L125.79 9.61L125.79 13.66Q125.79 13.98 125.76 14.57Q125.74 15.16 125.70 15.69L125.70 15.69Q126.06 15.64 126.45 15.63Q126.84 15.62 127.08 15.62L127.08 15.62L127.08 17.36Z"></path></svg>